<svg width="16" height="14" viewBox="0 0 16 14" fill="none" xmlns="http://www.w3.org/2000/svg">
<path d="M7.64329 13.1142C7.54634 13.1148 7.45023 13.0959 7.36048 13.0586C7.27072 13.0214 7.18909 12.9665 7.12026 12.8971L1.39635 7.07294C0.678369 6.33569 0.275635 5.34034 0.275635 4.3031C0.275635 3.26585 0.678369 2.2705 1.39635 1.53326C2.11995 0.800007 3.10014 0.388245 4.12202 0.388245C5.1439 0.388245 6.12409 0.800007 6.84769 1.53326L7.64329 2.34175L8.43889 1.53326C9.16249 0.800007 10.1427 0.388245 11.1646 0.388245C12.1864 0.388245 13.1666 0.800007 13.8902 1.53326C14.6082 2.2705 15.0109 3.26585 15.0109 4.3031C15.0109 5.34034 14.6082 6.33569 13.8902 7.07294L8.16632 12.8971C8.09749 12.9665 8.01585 13.0214 7.9261 13.0586C7.83635 13.0959 7.74024 13.1148 7.64329 13.1142Z" fill="#89089F"/>
</svg>
