<svg width="83" height="16" viewBox="0 0 83 16" fill="none" xmlns="http://www.w3.org/2000/svg">
<path d="M12.6473 15.5579C12.5239 15.5584 12.4021 15.5292 12.2922 15.4727L8.35552 13.4029L4.41881 15.4727C4.29098 15.5402 4.14685 15.5703 4.00281 15.5596C3.85877 15.549 3.7206 15.4979 3.60401 15.4123C3.48741 15.3267 3.39707 15.21 3.34325 15.0754C3.28943 14.9408 3.27429 14.7938 3.29955 14.651L4.07145 10.2867L0.891205 7.18603C0.791983 7.0866 0.721596 6.96191 0.687598 6.82534C0.6536 6.68877 0.657275 6.54549 0.698229 6.41086C0.742968 6.27309 0.825266 6.15067 0.935783 6.0575C1.0463 5.96433 1.18061 5.90413 1.32347 5.88374L5.72333 5.24035L7.66081 1.2637C7.72401 1.13264 7.8227 1.02211 7.94557 0.944773C8.06844 0.867435 8.21051 0.826416 8.35552 0.826416C8.50053 0.826416 8.6426 0.867435 8.76547 0.944773C8.88834 1.02211 8.98703 1.13264 9.05023 1.2637L11.0109 5.23259L15.4107 5.87599C15.5536 5.89638 15.6879 5.95658 15.7984 6.04975C15.9089 6.14292 15.9912 6.26534 16.036 6.40311C16.0769 6.53774 16.0806 6.68102 16.0466 6.81759C16.0126 6.95415 15.9422 7.07885 15.843 7.17828L12.6627 10.279L13.4347 14.6432C13.4622 14.7885 13.4478 14.9388 13.3931 15.0761C13.3384 15.2135 13.2456 15.3322 13.1259 15.4184C12.9861 15.5168 12.8178 15.5658 12.6473 15.5579Z" fill="#111111"/>
<path d="M34.7505 15.5579C34.627 15.5584 34.5052 15.5292 34.3954 15.4727L30.4587 13.4029L26.522 15.4727C26.3941 15.5402 26.25 15.5703 26.106 15.5596C25.9619 15.549 25.8238 15.4979 25.7072 15.4123C25.5906 15.3267 25.5002 15.21 25.4464 15.0754C25.3926 14.9408 25.3774 14.7938 25.4027 14.651L26.1746 10.2867L22.9944 7.18603C22.8951 7.0866 22.8247 6.96191 22.7907 6.82534C22.7567 6.68877 22.7604 6.54549 22.8014 6.41086C22.8461 6.27309 22.9284 6.15067 23.0389 6.0575C23.1494 5.96433 23.2838 5.90413 23.4266 5.88374L27.8265 5.24035L29.764 1.2637C29.8272 1.13264 29.9259 1.02211 30.0487 0.944773C30.1716 0.867435 30.3137 0.826416 30.4587 0.826416C30.6037 0.826416 30.7458 0.867435 30.8686 0.944773C30.9915 1.02211 31.0902 1.13264 31.1534 1.2637L33.114 5.23259L37.5139 5.87599C37.6567 5.89638 37.791 5.95658 37.9016 6.04975C38.0121 6.14292 38.0944 6.26534 38.1391 6.40311C38.1801 6.53774 38.1837 6.68102 38.1497 6.81759C38.1158 6.95415 38.0454 7.07885 37.9461 7.17828L34.7659 10.279L35.5378 14.6432C35.5654 14.7885 35.5509 14.9388 35.4962 15.0761C35.4415 15.2135 35.3488 15.3322 35.229 15.4184C35.0893 15.5168 34.921 15.5658 34.7505 15.5579Z" fill="#111111"/>
<path d="M56.8532 15.5579C56.7298 15.5584 56.608 15.5292 56.4982 15.4727L52.5615 13.4029L48.6247 15.4727C48.4969 15.5402 48.3528 15.5703 48.2087 15.5596C48.0647 15.549 47.9265 15.4979 47.8099 15.4123C47.6933 15.3267 47.603 15.21 47.5492 15.0754C47.4954 14.9408 47.4802 14.7938 47.5055 14.651L48.2774 10.2867L45.0971 7.18603C44.9979 7.0866 44.9275 6.96191 44.8935 6.82534C44.8595 6.68877 44.8632 6.54549 44.9042 6.41086C44.9489 6.27309 45.0312 6.15067 45.1417 6.0575C45.2522 5.96433 45.3865 5.90413 45.5294 5.88374L49.9293 5.24035L51.8667 1.2637C51.9299 1.13264 52.0286 1.02211 52.1515 0.944773C52.2744 0.867435 52.4164 0.826416 52.5615 0.826416C52.7065 0.826416 52.8485 0.867435 52.9714 0.944773C53.0943 1.02211 53.193 1.13264 53.2562 1.2637L55.2168 5.23259L59.6167 5.87599C59.7595 5.89638 59.8938 5.95658 60.0043 6.04975C60.1149 6.14292 60.1972 6.26534 60.2419 6.40311C60.2829 6.53774 60.2865 6.68102 60.2525 6.81759C60.2185 6.95415 60.1481 7.07885 60.0489 7.17828L56.8687 10.279L57.6406 14.6432C57.6681 14.7885 57.6537 14.9388 57.599 15.0761C57.5443 15.2135 57.4516 15.3322 57.3318 15.4184C57.192 15.5168 57.0237 15.5658 56.8532 15.5579Z" fill="#111111"/>
<path d="M78.9564 15.5579C78.8329 15.5584 78.7112 15.5292 78.6013 15.4727L74.6646 13.4029L70.7279 15.4727C70.6001 15.5402 70.4559 15.5703 70.3119 15.5596C70.1679 15.549 70.0297 15.4979 69.9131 15.4123C69.7965 15.3267 69.7062 15.21 69.6523 15.0754C69.5985 14.9408 69.5834 14.7938 69.6086 14.651L70.3805 10.2867L67.2003 7.18603C67.1011 7.0866 67.0307 6.96191 66.9967 6.82534C66.9627 6.68877 66.9664 6.54549 67.0073 6.41086C67.0521 6.27309 67.1343 6.15067 67.2449 6.0575C67.3554 5.96433 67.4897 5.90413 67.6326 5.88374L72.0324 5.24035L73.9699 1.2637C74.0331 1.13264 74.1318 1.02211 74.2547 0.944773C74.3775 0.867435 74.5196 0.826416 74.6646 0.826416C74.8096 0.826416 74.9517 0.867435 75.0746 0.944773C75.1974 1.02211 75.2961 1.13264 75.3593 1.2637L77.32 5.23259L81.7198 5.87599C81.8627 5.89638 81.997 5.95658 82.1075 6.04975C82.218 6.14292 82.3003 6.26534 82.3451 6.40311C82.386 6.53774 82.3897 6.68102 82.3557 6.81759C82.3217 6.95415 82.2513 7.07885 82.1521 7.17828L78.9718 10.279L79.7437 14.6432C79.7713 14.7885 79.7569 14.9388 79.7022 15.0761C79.6474 15.2135 79.5547 15.3322 79.435 15.4184C79.2952 15.5168 79.1269 15.5658 78.9564 15.5579Z" fill="#111111"/>
</svg>
