<svg width="145" height="32" viewBox="0 0 145 32" fill="none" xmlns="http://www.w3.org/2000/svg">
<path fill-rule="evenodd" clip-rule="evenodd" d="M16 32C24.8366 32 32 24.8365 32 16C32 7.16344 24.8366 0 16 0C7.16343 0 0 7.16344 0 16C0 24.8365 7.16343 32 16 32ZM20.9914 7.45347C21.2344 6.59044 20.3969 6.0801 19.632 6.62504L8.95449 14.2316C8.12497 14.8226 8.25545 16 9.15049 16H11.9622V15.9782H17.442L12.977 17.5536L11.0086 24.5465C10.7656 25.4096 11.6031 25.9199 12.368 25.3749L23.0455 17.7684C23.875 17.1774 23.7445 16 22.8495 16H18.5857L20.9914 7.45347Z" fill="url(#paint0_linear_44_8757)"/>
<path d="M49.032 24.5C48.856 24.5 48.728 24.42 48.648 24.26C48.568 24.084 48.576 23.868 48.672 23.612L54.48 7.244C54.56 7.052 54.648 6.916 54.744 6.836C54.84 6.74 54.992 6.692 55.2 6.692H59.928C60.344 6.692 60.632 6.908 60.792 7.34L66.552 23.684C66.616 23.844 66.616 24.02 66.552 24.212C66.504 24.404 66.392 24.5 66.216 24.5H61.512C61.24 24.5 61.064 24.364 60.984 24.092L60.048 21.332C60.016 21.252 59.976 21.188 59.928 21.14C59.896 21.076 59.816 21.044 59.688 21.044H54.6C54.408 21.044 54.288 21.132 54.24 21.308L53.256 24.14C53.224 24.236 53.16 24.324 53.064 24.404C52.984 24.468 52.856 24.5 52.68 24.5H49.032ZM58.488 16.964C58.728 16.964 58.8 16.804 58.704 16.484L57.264 12.38C57.232 12.3 57.184 12.26 57.12 12.26C57.056 12.26 57.008 12.3 56.976 12.38L55.512 16.46C55.384 16.796 55.464 16.964 55.752 16.964H58.488ZM73.4359 6.692C73.7239 6.692 73.8679 6.86 73.8679 7.196V23.804C73.8679 24.06 73.8039 24.244 73.6759 24.356C73.5479 24.452 73.3479 24.5 73.0759 24.5H69.0679C68.8119 24.5 68.6359 24.452 68.5399 24.356C68.4599 24.26 68.4199 24.108 68.4199 23.9V7.244C68.4199 6.876 68.5719 6.692 68.8759 6.692H73.4359ZM90.0019 19.412C90.0019 21.38 89.5139 22.764 88.5379 23.564C87.5779 24.348 86.1619 24.74 84.2899 24.74C83.7939 24.74 83.3059 24.716 82.8259 24.668C82.3619 24.62 81.8579 24.548 81.3139 24.452C81.0419 24.404 80.8419 24.308 80.7139 24.164C80.6019 24.004 80.5539 23.756 80.5699 23.42L80.7859 20.684C80.8179 20.268 81.0099 20.084 81.3619 20.132C81.5539 20.148 81.7539 20.18 81.9619 20.228C82.1859 20.276 82.4259 20.3 82.6819 20.3C83.2739 20.3 83.7299 20.132 84.0499 19.796C84.3859 19.46 84.5539 18.884 84.5539 18.068V7.244C84.5539 6.876 84.7139 6.692 85.0339 6.692H89.5699C89.8579 6.692 90.0019 6.86 90.0019 7.196V19.412ZM100.509 24.74C98.749 24.74 97.221 24.372 95.925 23.636C94.629 22.884 93.629 21.828 92.925 20.468C92.221 19.092 91.869 17.484 91.869 15.644C91.869 13.788 92.229 12.172 92.949 10.796C93.669 9.42 94.677 8.356 95.973 7.604C97.269 6.836 98.781 6.452 100.509 6.452C102.237 6.452 103.741 6.836 105.021 7.604C106.317 8.356 107.317 9.42 108.021 10.796C108.741 12.172 109.101 13.788 109.101 15.644C109.101 17.484 108.749 19.084 108.045 20.444C107.341 21.804 106.341 22.86 105.045 23.612C103.765 24.364 102.253 24.74 100.509 24.74ZM100.509 20.996C101.549 20.996 102.285 20.596 102.717 19.796C103.165 18.996 103.389 17.636 103.389 15.716C103.389 13.732 103.165 12.308 102.717 11.444C102.269 10.58 101.533 10.148 100.509 10.148C99.469 10.148 98.717 10.58 98.253 11.444C97.805 12.308 97.581 13.732 97.581 15.716C97.581 17.636 97.797 18.996 98.229 19.796C98.677 20.596 99.437 20.996 100.509 20.996ZM111.652 24.5C111.492 24.5 111.356 24.452 111.244 24.356C111.148 24.244 111.1 24.116 111.1 23.972V7.316C111.1 7.14 111.156 6.996 111.268 6.884C111.38 6.756 111.524 6.692 111.7 6.692H118.852C121.332 6.692 123.22 7.092 124.516 7.892C125.812 8.676 126.46 9.844 126.46 11.396C126.46 12.228 126.236 12.94 125.788 13.532C125.34 14.108 124.516 14.676 123.316 15.236C123.284 15.252 123.268 15.284 123.268 15.332C123.268 15.364 123.284 15.388 123.316 15.404C124.644 15.9 125.572 16.476 126.1 17.132C126.628 17.788 126.892 18.628 126.892 19.652C126.892 21.3 126.26 22.524 124.996 23.324C123.748 24.108 121.828 24.5 119.236 24.5H111.652ZM119.116 20.9C119.82 20.9 120.348 20.708 120.7 20.324C121.052 19.94 121.228 19.516 121.228 19.052C121.228 18.716 121.14 18.42 120.964 18.164C120.804 17.908 120.572 17.708 120.268 17.564C119.98 17.42 119.636 17.348 119.236 17.348H117.1C116.732 17.348 116.548 17.516 116.548 17.852V20.372C116.548 20.724 116.684 20.9 116.956 20.9H119.116ZM119.236 13.652C119.524 13.652 119.78 13.612 120.004 13.532C120.228 13.452 120.42 13.34 120.58 13.196C120.74 13.036 120.86 12.86 120.94 12.668C121.036 12.476 121.084 12.26 121.084 12.02C121.084 11.492 120.884 11.076 120.484 10.772C120.1 10.452 119.628 10.292 119.068 10.292H117.1C116.732 10.292 116.548 10.452 116.548 10.772V13.124C116.548 13.476 116.684 13.652 116.956 13.652H119.236ZM139.45 11.468C139.162 11.148 138.802 10.852 138.37 10.58C137.938 10.308 137.25 10.172 136.306 10.172C135.41 10.172 134.778 10.3 134.41 10.556C134.042 10.812 133.858 11.092 133.858 11.396C133.858 11.54 133.898 11.692 133.978 11.852C134.074 11.996 134.234 12.14 134.458 12.284C134.682 12.412 134.994 12.524 135.394 12.62L139.378 13.652C140.882 14.02 141.986 14.676 142.69 15.62C143.41 16.564 143.77 17.652 143.77 18.884C143.77 20.068 143.458 21.1 142.834 21.98C142.21 22.86 141.322 23.54 140.17 24.02C139.034 24.5 137.674 24.74 136.09 24.74C134.922 24.74 133.81 24.612 132.754 24.356C131.714 24.084 130.802 23.708 130.018 23.228C129.234 22.748 128.65 22.196 128.266 21.572C128.17 21.396 128.13 21.252 128.146 21.14C128.162 21.028 128.25 20.908 128.41 20.78L130.882 19.076C131.106 18.932 131.29 18.876 131.434 18.908C131.578 18.924 131.698 18.996 131.794 19.124C132.146 19.572 132.498 19.94 132.85 20.228C133.202 20.516 133.602 20.724 134.05 20.852C134.514 20.98 135.058 21.044 135.682 21.044C136.562 21.044 137.266 20.924 137.794 20.684C138.322 20.444 138.586 20.1 138.586 19.652C138.586 19.46 138.53 19.284 138.418 19.124C138.306 18.948 138.138 18.796 137.914 18.668C137.706 18.54 137.426 18.436 137.074 18.356L133.426 17.468C132.466 17.228 131.634 16.852 130.93 16.34C130.226 15.812 129.682 15.188 129.298 14.468C128.914 13.748 128.722 12.972 128.722 12.14C128.722 11.1 129.018 10.148 129.61 9.284C130.218 8.42 131.074 7.732 132.178 7.22C133.298 6.708 134.61 6.452 136.114 6.452C137.074 6.452 137.986 6.564 138.85 6.788C139.73 6.996 140.514 7.292 141.202 7.676C141.89 8.06 142.418 8.516 142.786 9.044C142.866 9.156 142.922 9.276 142.954 9.404C143.002 9.516 142.946 9.636 142.786 9.764L140.17 11.66C140.058 11.74 139.954 11.772 139.858 11.756C139.762 11.724 139.626 11.628 139.45 11.468Z" fill="white"/>
<defs>
<linearGradient id="paint0_linear_44_8757" x1="16" y1="0" x2="16" y2="32" gradientUnits="userSpaceOnUse">
<stop stop-color="#AF63FB"/>
<stop offset="1" stop-color="#8C20F8"/>
</linearGradient>
</defs>
</svg>
