<svg width="87" height="121" viewBox="0 0 87 121" fill="none" xmlns="http://www.w3.org/2000/svg">
<path d="M16.888 0.15625L33.7755 18.1562H0.000488281L16.888 0.15625Z" fill="#6B21A8"/>
<path fill-rule="evenodd" clip-rule="evenodd" d="M86.853 2C86.853 0.895431 85.9576 0 84.853 0H17.853C16.7485 0 15.853 0.895429 15.853 2V118.352C15.853 119.919 17.572 120.877 18.9045 120.053L50.3016 100.65C50.946 100.252 51.7601 100.252 52.4045 100.65L83.8016 120.053C85.134 120.877 86.853 119.919 86.853 118.352V2Z" fill="url(#paint0_linear_129_6148)"/>
<path d="M43.4457 33.96L40.6057 37.72C41.6457 37.96 42.4724 38.44 43.0857 39.16C43.7124 39.8667 44.0257 40.7333 44.0257 41.76C44.0257 43.16 43.5524 44.26 42.6057 45.06C41.6724 45.86 40.5124 46.26 39.1257 46.26C38.0324 46.26 37.0657 46.0133 36.2257 45.52C35.3857 45.0133 34.7857 44.2933 34.4257 43.36L36.3857 42.22C36.799 43.42 37.7124 44.02 39.1257 44.02C39.9257 44.02 40.559 43.82 41.0257 43.42C41.4924 43.0067 41.7257 42.4533 41.7257 41.76C41.7257 41.0667 41.4924 40.52 41.0257 40.12C40.559 39.72 39.9257 39.52 39.1257 39.52H38.6057L37.6857 38.14L40.7057 34.16H34.8457V32H43.4457V33.96ZM54.9405 36.52C54.9405 37.5867 54.6605 38.5267 54.1005 39.34L49.6805 46H47.0405L50.2405 41.3H50.0005C48.5472 41.3 47.3539 40.86 46.4205 39.98C45.5005 39.0867 45.0405 37.9333 45.0405 36.52C45.0405 35.1067 45.5005 33.96 46.4205 33.08C47.3539 32.1867 48.5472 31.74 50.0005 31.74C51.4672 31.74 52.6539 32.1867 53.5605 33.08C54.4805 33.96 54.9405 35.1067 54.9405 36.52ZM47.3405 36.52C47.3405 37.28 47.5872 37.9067 48.0805 38.4C48.5872 38.88 49.2272 39.12 50.0005 39.12C50.7739 39.12 51.4072 38.8867 51.9005 38.42C52.3939 37.94 52.6405 37.3067 52.6405 36.52C52.6405 35.7333 52.3939 35.1067 51.9005 34.64C51.4072 34.16 50.7739 33.92 50.0005 33.92C49.2272 33.92 48.5872 34.16 48.0805 34.64C47.5872 35.1067 47.3405 35.7333 47.3405 36.52ZM62.439 32.66C63.0656 33.2867 63.379 34.0467 63.379 34.94C63.379 35.8333 63.0656 36.5933 62.439 37.22C61.8256 37.8333 61.0523 38.14 60.119 38.14C59.1723 38.14 58.3923 37.8333 57.779 37.22C57.1523 36.5933 56.839 35.8333 56.839 34.94C56.839 34.06 57.1523 33.3067 57.779 32.68C58.4056 32.0533 59.1856 31.74 60.119 31.74C61.0523 31.74 61.8256 32.0467 62.439 32.66ZM60.099 36.38C60.5256 36.38 60.8723 36.2467 61.139 35.98C61.4056 35.7 61.539 35.3533 61.539 34.94C61.539 34.5267 61.4056 34.18 61.139 33.9C60.8723 33.62 60.5256 33.48 60.099 33.48C59.6856 33.48 59.3456 33.62 59.079 33.9C58.8123 34.18 58.679 34.5267 58.679 34.94C58.679 35.34 58.8123 35.68 59.079 35.96C59.359 36.24 59.699 36.38 60.099 36.38ZM59.099 44.58L58.019 43.94L67.239 33.68L68.319 34.3L59.099 44.58ZM66.519 46.24C65.5723 46.24 64.7923 45.9333 64.179 45.32C63.5523 44.6933 63.239 43.9333 63.239 43.04C63.239 42.16 63.5523 41.4067 64.179 40.78C64.8056 40.1533 65.5856 39.84 66.519 39.84C67.439 39.84 68.2123 40.1533 68.839 40.78C69.4656 41.4067 69.779 42.16 69.779 43.04C69.779 43.9333 69.4656 44.6933 68.839 45.32C68.2256 45.9333 67.4523 46.24 66.519 46.24ZM66.499 44.48C66.9256 44.48 67.2723 44.3467 67.539 44.08C67.8056 43.8 67.939 43.4533 67.939 43.04C67.939 42.6267 67.8056 42.28 67.539 42C67.2723 41.72 66.9256 41.58 66.499 41.58C66.0856 41.58 65.7456 41.72 65.479 42C65.2123 42.28 65.079 42.6267 65.079 43.04C65.079 43.44 65.2123 43.78 65.479 44.06C65.759 44.34 66.099 44.48 66.499 44.48ZM33.2929 66.76C33.2929 67.0667 33.4529 67.32 33.7729 67.52C34.0929 67.7067 34.5595 67.8867 35.1729 68.06C35.6395 68.1667 36.0462 68.28 36.3929 68.4C36.7395 68.52 37.1062 68.7 37.4929 68.94C37.8795 69.1667 38.1729 69.4733 38.3729 69.86C38.5862 70.2333 38.6862 70.6733 38.6729 71.18C38.6729 72.14 38.2995 72.8933 37.5529 73.44C36.8062 73.9867 35.8795 74.26 34.7729 74.26C33.7862 74.26 32.9395 74.0533 32.2329 73.64C31.5262 73.2267 31.0129 72.6533 30.6929 71.92L32.5529 70.84C32.8862 71.8 33.6262 72.28 34.7729 72.28C35.9062 72.28 36.4729 71.9067 36.4729 71.16C36.4729 70.6133 35.8395 70.1867 34.5729 69.88C34.0929 69.76 33.6862 69.64 33.3529 69.52C33.0329 69.4 32.6729 69.2267 32.2729 69C31.8862 68.7733 31.5862 68.4733 31.3729 68.1C31.1729 67.7267 31.0795 67.2933 31.0929 66.8C31.0929 65.88 31.4395 65.14 32.1329 64.58C32.8395 64.02 33.7129 63.74 34.7529 63.74C35.5795 63.74 36.3129 63.9267 36.9529 64.3C37.6062 64.66 38.1062 65.1667 38.4529 65.82L36.6329 66.84C36.2995 66.08 35.6729 65.7 34.7529 65.7C34.3262 65.7 33.9729 65.7933 33.6929 65.98C33.4262 66.1667 33.2929 66.4267 33.2929 66.76ZM48.6377 65.42V64H50.7977V74H48.6377V72.56C47.8244 73.6933 46.6577 74.26 45.1377 74.26C43.7644 74.26 42.591 73.7533 41.6177 72.74C40.6444 71.7267 40.1577 70.48 40.1577 69C40.1577 67.52 40.6444 66.2733 41.6177 65.26C42.591 64.2467 43.7644 63.74 45.1377 63.74C46.6577 63.74 47.8244 64.3 48.6377 65.42ZM43.2177 71.3C43.8177 71.9 44.571 72.2 45.4777 72.2C46.3844 72.2 47.1377 71.9 47.7377 71.3C48.3377 70.6867 48.6377 69.92 48.6377 69C48.6377 68.08 48.3377 67.32 47.7377 66.72C47.1377 66.1067 46.3844 65.8 45.4777 65.8C44.571 65.8 43.8177 66.1067 43.2177 66.72C42.6177 67.32 42.3177 68.08 42.3177 69C42.3177 69.9067 42.6177 70.6733 43.2177 71.3ZM57.7154 71.6L60.4954 64H62.8554L58.9554 74H56.4554L52.5554 64H54.9154L57.7154 71.6ZM73.8926 69.92H65.9326C66.0926 70.6667 66.4526 71.2467 67.0126 71.66C67.5859 72.0733 68.2926 72.28 69.1326 72.28C70.2659 72.28 71.1259 71.8667 71.7126 71.04L73.4926 72.08C72.5192 73.5333 71.0592 74.26 69.1126 74.26C67.4992 74.26 66.1859 73.7667 65.1726 72.78C64.1726 71.78 63.6726 70.52 63.6726 69C63.6726 67.52 64.1659 66.2733 65.1526 65.26C66.1259 64.2467 67.3926 63.74 68.9526 63.74C70.4059 63.74 71.6059 64.2533 72.5526 65.28C73.4992 66.3067 73.9726 67.5533 73.9726 69.02C73.9726 69.2867 73.9459 69.5867 73.8926 69.92ZM65.9126 68.16H71.7926C71.6459 67.3733 71.3126 66.7667 70.7926 66.34C70.2859 65.9133 69.6659 65.7 68.9326 65.7C68.1326 65.7 67.4659 65.92 66.9326 66.36C66.3992 66.8 66.0592 67.4 65.9126 68.16Z" fill="white"/>
<defs>
<linearGradient id="paint0_linear_129_6148" x1="51.353" y1="0" x2="51.353" y2="120.355" gradientUnits="userSpaceOnUse">
<stop stop-color="#AF63FB"/>
<stop offset="1" stop-color="#8C20F8"/>
</linearGradient>
</defs>
</svg>
